<svg xmlns="http://www.w3.org/2000/svg" width="348" height="334" viewBox="0 0 348 334">
<g>
<path d="M 0.00 0.00 L 348.00 0.00 L 348.00 334.00 L 0.00 334.00 ZM 74.15 322.92 C81.28,324.84 84.49,324.90 183.00,324.68 C284.44,324.45 284.50,324.45 290.69,322.27 C303.93,317.61 317.28,309.04 325.08,300.18 C329.92,294.67 335.41,285.13 338.94,276.06 L 341.50 269.50 L 341.79 172.00 C341.97,108.97 341.71,72.16 341.05,67.88 C338.23,49.68 325.70,30.06 310.31,19.76 C301.68,13.99 297.56,11.98 287.00,8.39 L 278.50 5.50 L 183.00 5.50 C92.70,5.50 87.09,5.60 80.00,7.39 C50.42,14.84 27.01,38.04 20.37,66.50 C18.61,74.01 18.50,80.22 18.50,167.50 C18.50,239.02 18.79,261.74 19.77,265.87 C23.13,280.17 32.57,296.91 41.92,305.18 C51.24,313.42 63.04,319.92 74.15,322.92 ZM 284.31 306.61 C277.87,308.40 272.30,308.51 182.00,308.61 C129.48,308.67 85.15,308.53 83.50,308.29 C68.21,306.10 50.65,293.51 42.16,278.66 C40.67,276.06 39.47,274.14 38.50,272.12 C34.48,263.72 34.48,253.40 34.50,183.51 C34.50,178.78 34.50,173.79 34.50,168.50 C34.50,164.93 34.50,161.49 34.50,158.18 C34.49,83.76 34.49,72.86 38.28,63.49 C39.10,61.46 40.10,59.51 41.31,57.00 C44.53,50.34 47.06,46.87 53.03,40.94 C62.91,31.14 73.40,25.78 88.25,22.95 C97.91,21.11 103.32,21.00 183.00,21.01 L 267.50 21.02 L 278.02 23.40 C290.52,26.24 298.55,30.54 307.70,39.29 C314.87,46.15 319.73,53.82 323.11,63.59 L 325.50 70.50 L 325.78 163.97 L 325.79 168.86 C326.05,253.01 326.08,263.54 322.24,272.38 C321.61,273.81 320.89,275.20 320.05,276.85 C312.87,290.91 298.86,302.58 284.31,306.61 ZM 189.25 248.38 C191.08,249.17 216.71,248.63 217.56,247.78 C217.95,247.38 218.82,244.68 219.49,241.78 C220.37,237.91 221.14,236.54 222.35,236.64 C223.47,236.73 224.00,235.99 224.00,234.33 C224.00,232.98 223.56,232.15 223.02,232.49 C221.92,233.17 222.47,229.52 224.67,221.50 C226.31,215.50 226.66,213.84 228.04,205.75 C229.54,196.93 229.98,195.78 231.59,196.40 C232.54,196.76 233.00,196.22 232.98,194.72 C232.97,192.91 232.79,192.78 231.99,194.00 C230.86,195.72 231.34,192.35 233.69,182.00 C234.50,178.43 236.00,171.68 237.01,167.00 C238.03,162.32 239.51,155.80 240.31,152.50 C241.12,149.20 242.06,144.83 242.42,142.80 C242.90,140.11 243.47,139.24 244.53,139.65 C245.72,140.11 245.88,139.42 245.39,135.86 C244.98,132.82 245.58,128.39 247.40,121.21 C248.83,115.55 250.00,110.69 250.00,110.40 C250.00,110.12 250.45,110.16 251.00,110.50 C251.55,110.84 252.00,110.24 252.00,109.17 C252.00,106.34 253.73,106.00 267.96,106.00 C282.13,106.00 282.36,105.90 283.88,99.42 C284.39,97.26 284.84,96.29 284.90,97.25 C284.95,98.21 285.49,99.00 286.08,99.00 C286.77,99.00 286.91,97.87 286.47,95.87 C286.02,93.83 286.14,92.97 286.82,93.39 C287.51,93.81 287.66,91.47 287.28,86.26 C286.96,81.99 286.32,78.35 285.85,78.16 C285.37,77.98 285.24,77.42 285.55,76.91 C285.89,76.37 261.01,76.00 223.28,76.00 C162.05,76.00 160.40,76.05 158.76,77.97 C157.84,79.05 157.48,80.18 157.97,80.48 C158.46,80.78 159.14,80.12 159.50,79.01 C160.15,76.95 162.00,76.20 162.00,78.00 C162.00,78.55 161.60,79.00 161.11,79.00 C160.62,79.00 159.92,80.17 159.57,81.59 C159.13,83.32 158.43,84.00 157.46,83.62 C156.66,83.31 156.00,83.46 156.00,83.95 C156.00,84.43 156.40,84.98 156.89,85.17 C157.37,85.35 157.05,89.69 156.17,94.81 C154.77,102.96 154.75,104.23 156.03,105.04 C157.14,105.74 213.36,106.73 217.25,106.12 C217.66,106.05 218.04,107.91 218.10,110.25 C218.18,113.86 218.32,114.12 219.00,112.00 C220.80,106.39 219.84,112.97 217.55,121.92 C209.48,153.55 207.34,162.27 202.18,184.50 C197.78,203.44 195.74,211.63 194.95,213.50 C194.24,215.18 191.00,230.14 191.00,231.73 C191.00,232.01 190.32,231.68 189.50,231.00 C188.28,229.98 188.00,230.04 188.00,231.32 C188.00,232.18 188.40,233.13 188.90,233.44 C189.42,233.76 189.43,235.56 188.92,237.74 C187.66,243.15 187.81,247.75 189.25,248.38 ZM 74.77 247.76 C76.05,248.74 87.04,248.96 124.45,248.76 L 172.50 248.50 L 174.01 243.71 C175.27,239.76 175.76,239.15 176.87,240.21 C177.98,241.28 178.10,240.82 177.57,237.50 C177.22,235.30 177.40,231.05 177.98,228.06 C178.64,224.58 178.67,222.27 178.06,221.66 C177.50,221.10 168.76,220.73 157.30,220.78 C146.41,220.83 138.62,220.52 140.00,220.09 C141.72,219.55 139.55,219.17 133.00,218.86 C120.91,218.29 116.67,219.31 128.00,220.06 L 136.50 220.63 L 125.50 220.80 C118.09,220.91 114.99,220.65 116.00,220.00 C117.28,219.17 117.25,219.03 115.75,219.02 C114.79,219.01 114.00,218.30 114.00,217.44 C114.00,216.58 113.55,216.16 113.00,216.50 C111.68,217.31 111.72,216.61 113.55,207.36 C115.56,197.13 116.79,194.09 118.13,196.05 C118.81,197.06 118.92,196.20 118.47,193.27 C117.72,188.33 121.71,172.93 123.15,175.20 C123.77,176.18 123.97,176.09 123.98,174.83 C123.99,173.92 123.57,173.02 123.05,172.83 C122.17,172.53 122.44,170.41 124.55,161.16 C124.90,159.62 125.59,159.01 126.54,159.38 C127.52,159.75 128.00,159.28 128.00,157.91 C128.00,156.79 127.55,156.16 127.00,156.50 C125.83,157.22 125.77,156.45 126.71,153.00 L 127.39 150.50 L 128.17 153.00 C128.72,154.74 128.79,154.33 128.41,151.65 C128.07,149.22 128.85,143.68 130.51,136.65 C131.96,130.52 133.36,124.45 133.62,123.16 C133.93,121.61 134.58,121.01 135.54,121.38 C136.39,121.70 137.00,121.35 137.00,120.55 C137.00,119.79 136.58,119.02 136.07,118.83 C135.14,118.50 138.32,100.35 139.51,99.16 C139.84,98.83 140.57,99.22 141.14,100.03 C141.87,101.08 141.99,100.27 141.55,97.16 C141.22,94.77 141.43,90.12 142.03,86.83 C142.83,82.40 142.82,80.49 141.97,79.47 C141.34,78.71 141.12,77.62 141.47,77.04 C141.91,76.34 137.84,76.05 128.81,76.17 C121.49,76.26 117.30,76.54 119.50,76.79 L 123.50 77.24 L 119.11 78.37 C115.72,79.24 114.31,80.26 112.94,82.82 C111.50,85.54 111.08,85.81 110.68,84.32 C110.41,83.32 110.39,84.30 110.63,86.50 C111.28,92.26 105.01,120.32 103.81,117.00 C103.52,116.18 102.90,115.85 102.45,116.27 C102.00,116.69 102.13,117.53 102.74,118.14 C103.35,118.75 103.59,119.90 103.28,120.71 C102.82,121.90 102.57,121.92 101.88,120.83 C101.27,119.88 101.03,120.16 101.02,121.81 C101.01,123.16 101.43,123.85 102.04,123.48 C102.70,123.07 102.88,123.69 102.53,125.17 C97.49,146.55 94.82,155.67 93.28,156.86 C92.20,157.69 91.93,158.39 92.60,158.65 C93.21,158.88 93.49,160.22 93.22,161.63 C92.86,163.53 92.50,163.84 91.84,162.84 C91.26,161.98 91.17,162.51 91.59,164.30 C91.95,165.87 91.57,169.39 90.73,172.30 C89.89,175.16 87.81,183.57 86.09,191.00 C81.75,209.80 79.73,216.57 79.04,214.61 C78.72,213.71 78.43,215.57 78.39,218.74 C78.30,225.75 76.42,231.20 74.86,228.97 C74.11,227.88 74.00,228.24 74.46,230.36 C74.81,231.93 74.78,235.30 74.39,237.85 C73.83,241.62 73.54,242.12 72.84,240.50 C72.26,239.16 72.17,239.83 72.55,242.50 C72.87,244.70 73.86,247.07 74.77,247.76 ZM 239.00 161.94 C239.00,163.07 239.45,164.00 240.00,164.00 C240.55,164.00 241.00,163.35 241.00,162.56 C241.00,161.77 240.55,160.84 240.00,160.50 C239.45,160.16 239.00,160.81 239.00,161.94 ZM 230.00 200.94 C230.00,202.07 230.45,203.00 231.00,203.00 C231.55,203.00 232.00,202.35 232.00,201.56 C232.00,200.77 231.55,199.84 231.00,199.50 C230.45,199.16 230.00,199.81 230.00,200.94 ZM 193.53 210.71 C194.27,212.42 194.33,212.42 194.74,210.67 C195.21,208.70 194.39,207.27 193.38,208.29 C193.03,208.63 193.10,209.72 193.53,210.71 ZM 203.45 168.91 C204.48,170.59 205.00,170.21 205.00,167.80 C205.00,166.18 204.70,165.90 203.89,166.71 C203.28,167.32 203.08,168.31 203.45,168.91 ZM 130.00 142.50 C130.00,143.32 130.45,144.00 131.00,144.00 C131.55,144.00 132.00,143.32 132.00,142.50 C132.00,141.68 131.55,141.00 131.00,141.00 C130.45,141.00 130.00,141.68 130.00,142.50 ZM 116.00 201.50 C116.00,202.32 116.45,203.00 117.00,203.00 C117.55,203.00 118.00,202.32 118.00,201.50 C118.00,200.68 117.55,200.00 117.00,200.00 C116.45,200.00 116.00,200.68 116.00,201.50 ZM 221.00 240.50 C221.00,241.32 221.45,242.00 222.00,242.00 C222.55,242.00 223.00,241.32 223.00,240.50 C223.00,239.68 222.55,239.00 222.00,239.00 C221.45,239.00 221.00,239.68 221.00,240.50 ZM 243.00 145.00 C243.00,146.87 243.27,147.13 244.20,146.20 C245.13,145.27 245.13,144.73 244.20,143.80 C243.27,142.87 243.00,143.13 243.00,145.00 ZM 125.00 163.00 C125.00,164.87 125.27,165.13 126.20,164.20 C127.13,163.27 127.13,162.73 126.20,161.80 C125.27,160.87 125.00,161.13 125.00,163.00 ZM 120.00 185.00 C120.00,186.87 120.27,187.13 121.20,186.20 C122.13,185.27 122.13,184.73 121.20,183.80 C120.27,182.87 120.00,183.13 120.00,185.00 ZM 139.00 104.06 C139.00,104.58 139.45,105.00 140.00,105.00 C140.55,105.00 141.00,104.30 141.00,103.44 C141.00,102.58 140.55,102.16 140.00,102.50 C139.45,102.84 139.00,103.54 139.00,104.06 ZM 134.00 126.56 C134.00,127.42 134.45,127.84 135.00,127.50 C135.55,127.16 136.00,126.46 136.00,125.94 C136.00,125.42 135.55,125.00 135.00,125.00 C134.45,125.00 134.00,125.70 134.00,126.56 ZM 84.58 189.13 C85.21,190.15 85.45,190.15 85.79,189.14 C86.27,187.69 85.29,186.37 84.40,187.27 C84.07,187.60 84.15,188.44 84.58,189.13 ZM 216.58 117.13 C217.21,118.15 217.45,118.15 217.79,117.14 C218.27,115.69 217.29,114.37 216.40,115.27 C216.07,115.60 216.15,116.44 216.58,117.13 ZM 248.00 122.00 C248.00,122.55 248.45,123.00 249.00,123.00 C249.55,123.00 250.00,122.55 250.00,122.00 C250.00,121.45 249.55,121.00 249.00,121.00 C248.45,121.00 248.00,121.45 248.00,122.00 ZM 75.54 225.07 C76.40,226.46 77.00,226.20 77.00,224.44 C77.00,223.58 76.54,223.16 75.98,223.51 C75.42,223.86 75.23,224.56 75.54,225.07 ZM 103.54 113.07 C104.40,114.46 105.00,114.20 105.00,112.44 C105.00,111.58 104.54,111.16 103.98,111.51 C103.42,111.86 103.23,112.56 103.54,113.07 ZM 93.50 153.00 C93.84,153.55 94.32,154.00 94.56,154.00 C94.80,154.00 95.00,153.55 95.00,153.00 C95.00,152.45 94.52,152.00 93.94,152.00 C93.36,152.00 93.16,152.45 93.50,153.00 ZM 242.16 150.00 C242.16,151.38 242.38,151.94 242.66,151.25 C242.94,150.56 242.94,149.44 242.66,148.75 C242.38,148.06 242.16,148.62 242.16,150.00 ZM 95.16 148.00 C95.16,149.38 95.38,149.94 95.66,149.25 C95.94,148.56 95.94,147.44 95.66,146.75 C95.38,146.06 95.16,146.62 95.16,148.00 ZM 73.08 235.42 C73.04,236.47 73.27,237.06 73.60,236.73 C73.94,236.40 73.97,235.53 73.68,234.81 C73.36,234.01 73.13,234.25 73.08,235.42 Z" fill="rgb(1,2,3)"/>
<path d="M 189.25 248.38 C187.81,247.75 187.66,243.15 188.92,237.74 C189.43,235.56 189.42,233.76 188.90,233.44 C188.40,233.13 188.00,232.18 188.00,231.32 C188.00,230.04 188.28,229.98 189.50,231.00 C190.32,231.68 191.00,232.01 191.00,231.73 C191.00,230.14 194.24,215.18 194.95,213.50 C195.74,211.63 197.78,203.44 202.18,184.50 C207.34,162.27 209.48,153.55 217.55,121.92 C219.84,112.97 220.80,106.39 219.00,112.00 C218.32,114.12 218.18,113.86 218.10,110.25 C218.04,107.91 217.66,106.05 217.25,106.12 C213.36,106.73 157.14,105.74 156.03,105.04 C154.75,104.23 154.77,102.96 156.17,94.81 C157.05,89.69 157.37,85.35 156.89,85.17 C156.40,84.98 156.00,84.43 156.00,83.95 C156.00,83.46 156.66,83.31 157.46,83.62 C158.43,84.00 159.13,83.32 159.57,81.59 C159.92,80.17 160.62,79.00 161.11,79.00 C161.60,79.00 162.00,78.55 162.00,78.00 C162.00,76.20 160.15,76.95 159.50,79.01 C159.14,80.12 158.46,80.78 157.97,80.48 C157.48,80.18 157.84,79.05 158.76,77.97 C160.40,76.05 162.05,76.00 223.28,76.00 C261.01,76.00 285.89,76.37 285.55,76.91 C285.24,77.42 285.37,77.98 285.85,78.16 C286.32,78.35 286.96,81.99 287.28,86.26 C287.66,91.47 287.51,93.81 286.82,93.39 C286.14,92.97 286.02,93.83 286.47,95.87 C286.91,97.87 286.77,99.00 286.08,99.00 C285.49,99.00 284.95,98.21 284.90,97.25 C284.84,96.29 284.39,97.26 283.88,99.42 C282.36,105.90 282.13,106.00 267.96,106.00 C253.73,106.00 252.00,106.34 252.00,109.17 C252.00,110.24 251.55,110.84 251.00,110.50 C250.45,110.16 250.00,110.12 250.00,110.40 C250.00,110.69 248.83,115.55 247.40,121.21 C245.58,128.39 244.98,132.82 245.39,135.86 C245.88,139.42 245.72,140.11 244.53,139.65 C243.47,139.24 242.90,140.11 242.42,142.80 C242.06,144.83 241.12,149.20 240.31,152.50 C239.51,155.80 238.03,162.32 237.01,167.00 C236.00,171.68 234.50,178.43 233.69,182.00 C231.34,192.35 230.86,195.72 231.99,194.00 C232.79,192.78 232.97,192.91 232.98,194.72 C233.00,196.22 232.54,196.76 231.59,196.40 C229.98,195.78 229.54,196.93 228.04,205.75 C226.66,213.84 226.31,215.50 224.67,221.50 C222.47,229.52 221.92,233.17 223.02,232.49 C223.56,232.15 224.00,232.98 224.00,234.33 C224.00,235.99 223.47,236.73 222.35,236.64 C221.14,236.54 220.37,237.91 219.49,241.78 C218.82,244.68 217.95,247.38 217.56,247.78 C216.71,248.63 191.08,249.17 189.25,248.38 ZM 74.77 247.76 C73.86,247.07 72.87,244.70 72.55,242.50 C72.17,239.83 72.26,239.16 72.84,240.50 C73.54,242.12 73.83,241.62 74.39,237.85 C74.78,235.30 74.81,231.93 74.46,230.36 C74.00,228.24 74.11,227.88 74.86,228.97 C76.42,231.20 78.30,225.75 78.39,218.74 C78.43,215.57 78.72,213.71 79.04,214.61 C79.73,216.57 81.75,209.80 86.09,191.00 C87.81,183.57 89.89,175.16 90.73,172.30 C91.57,169.39 91.95,165.87 91.59,164.30 C91.17,162.51 91.26,161.98 91.84,162.84 C92.50,163.84 92.86,163.53 93.22,161.63 C93.49,160.22 93.21,158.88 92.60,158.65 C91.93,158.39 92.20,157.69 93.28,156.86 C94.82,155.67 97.49,146.55 102.53,125.17 C102.88,123.69 102.70,123.07 102.04,123.48 C101.43,123.85 101.01,123.16 101.02,121.81 C101.03,120.16 101.27,119.88 101.88,120.83 C102.57,121.92 102.82,121.90 103.28,120.71 C103.59,119.90 103.35,118.75 102.74,118.14 C102.13,117.53 102.00,116.69 102.45,116.27 C102.90,115.85 103.52,116.18 103.81,117.00 C105.01,120.32 111.28,92.26 110.63,86.50 C110.39,84.30 110.41,83.32 110.68,84.32 C111.08,85.81 111.50,85.54 112.94,82.82 C114.31,80.26 115.72,79.24 119.11,78.37 L 123.50 77.24 L 119.50 76.79 C117.30,76.54 121.49,76.26 128.81,76.17 C137.84,76.05 141.91,76.34 141.47,77.04 C141.12,77.62 141.34,78.71 141.97,79.47 C142.82,80.49 142.83,82.40 142.03,86.83 C141.43,90.12 141.22,94.77 141.55,97.16 C141.99,100.27 141.87,101.08 141.14,100.03 C140.57,99.22 139.84,98.83 139.51,99.16 C138.32,100.35 135.14,118.50 136.07,118.83 C136.58,119.02 137.00,119.79 137.00,120.55 C137.00,121.35 136.39,121.70 135.54,121.38 C134.58,121.01 133.93,121.61 133.62,123.16 C133.36,124.45 131.96,130.52 130.51,136.65 C128.85,143.68 128.07,149.22 128.41,151.65 C128.79,154.33 128.72,154.74 128.17,153.00 L 127.39 150.50 L 126.71 153.00 C125.77,156.45 125.83,157.22 127.00,156.50 C127.55,156.16 128.00,156.79 128.00,157.91 C128.00,159.28 127.52,159.75 126.54,159.38 C125.59,159.01 124.90,159.62 124.55,161.16 C122.44,170.41 122.17,172.53 123.05,172.83 C123.57,173.02 123.99,173.92 123.98,174.83 C123.97,176.09 123.77,176.18 123.15,175.20 C121.71,172.93 117.72,188.33 118.47,193.27 C118.92,196.20 118.81,197.06 118.13,196.05 C116.79,194.09 115.56,197.13 113.55,207.36 C111.72,216.61 111.68,217.31 113.00,216.50 C113.55,216.16 114.00,216.58 114.00,217.44 C114.00,218.30 114.79,219.01 115.75,219.02 C117.25,219.03 117.28,219.17 116.00,220.00 C114.99,220.65 118.09,220.91 125.50,220.80 L 136.50 220.63 L 128.00 220.06 C116.67,219.31 120.91,218.29 133.00,218.86 C139.55,219.17 141.72,219.55 140.00,220.09 C138.62,220.52 146.41,220.83 157.30,220.78 C168.76,220.73 177.50,221.10 178.06,221.66 C178.67,222.27 178.64,224.58 177.98,228.06 C177.40,231.05 177.22,235.30 177.57,237.50 C178.10,240.82 177.98,241.28 176.87,240.21 C175.76,239.15 175.27,239.76 174.01,243.71 L 172.50 248.50 L 124.45 248.76 C87.04,248.96 76.05,248.74 74.77,247.76 ZM 239.00 161.94 C239.00,160.81 239.45,160.16 240.00,160.50 C240.55,160.84 241.00,161.77 241.00,162.56 C241.00,163.35 240.55,164.00 240.00,164.00 C239.45,164.00 239.00,163.07 239.00,161.94 ZM 230.00 200.94 C230.00,199.81 230.45,199.16 231.00,199.50 C231.55,199.84 232.00,200.77 232.00,201.56 C232.00,202.35 231.55,203.00 231.00,203.00 C230.45,203.00 230.00,202.07 230.00,200.94 ZM 193.53 210.71 C193.10,209.72 193.03,208.63 193.38,208.29 C194.39,207.27 195.21,208.70 194.74,210.67 C194.33,212.42 194.27,212.42 193.53,210.71 ZM 203.45 168.91 C203.08,168.31 203.28,167.32 203.89,166.71 C204.70,165.90 205.00,166.18 205.00,167.80 C205.00,170.21 204.48,170.59 203.45,168.91 ZM 130.00 142.50 C130.00,141.68 130.45,141.00 131.00,141.00 C131.55,141.00 132.00,141.68 132.00,142.50 C132.00,143.32 131.55,144.00 131.00,144.00 C130.45,144.00 130.00,143.32 130.00,142.50 ZM 116.00 201.50 C116.00,200.68 116.45,200.00 117.00,200.00 C117.55,200.00 118.00,200.68 118.00,201.50 C118.00,202.32 117.55,203.00 117.00,203.00 C116.45,203.00 116.00,202.32 116.00,201.50 ZM 221.00 240.50 C221.00,239.68 221.45,239.00 222.00,239.00 C222.55,239.00 223.00,239.68 223.00,240.50 C223.00,241.32 222.55,242.00 222.00,242.00 C221.45,242.00 221.00,241.32 221.00,240.50 ZM 243.00 145.00 C243.00,143.13 243.27,142.87 244.20,143.80 C245.13,144.73 245.13,145.27 244.20,146.20 C243.27,147.13 243.00,146.87 243.00,145.00 ZM 125.00 163.00 C125.00,161.13 125.27,160.87 126.20,161.80 C127.13,162.73 127.13,163.27 126.20,164.20 C125.27,165.13 125.00,164.87 125.00,163.00 ZM 120.00 185.00 C120.00,183.13 120.27,182.87 121.20,183.80 C122.13,184.73 122.13,185.27 121.20,186.20 C120.27,187.13 120.00,186.87 120.00,185.00 ZM 139.00 104.06 C139.00,103.54 139.45,102.84 140.00,102.50 C140.55,102.16 141.00,102.58 141.00,103.44 C141.00,104.30 140.55,105.00 140.00,105.00 C139.45,105.00 139.00,104.58 139.00,104.06 ZM 134.00 126.56 C134.00,125.70 134.45,125.00 135.00,125.00 C135.55,125.00 136.00,125.42 136.00,125.94 C136.00,126.46 135.55,127.16 135.00,127.50 C134.45,127.84 134.00,127.42 134.00,126.56 ZM 84.58 189.13 C84.15,188.44 84.07,187.60 84.40,187.27 C85.29,186.37 86.27,187.69 85.79,189.14 C85.45,190.15 85.21,190.15 84.58,189.13 ZM 216.58 117.13 C216.15,116.44 216.07,115.60 216.40,115.27 C217.29,114.37 218.27,115.69 217.79,117.14 C217.45,118.15 217.21,118.15 216.58,117.13 ZM 248.00 122.00 C248.00,121.45 248.45,121.00 249.00,121.00 C249.55,121.00 250.00,121.45 250.00,122.00 C250.00,122.55 249.55,123.00 249.00,123.00 C248.45,123.00 248.00,122.55 248.00,122.00 ZM 75.54 225.07 C75.23,224.56 75.42,223.86 75.98,223.51 C76.54,223.16 77.00,223.58 77.00,224.44 C77.00,226.20 76.40,226.46 75.54,225.07 ZM 103.54 113.07 C103.23,112.56 103.42,111.86 103.98,111.51 C104.54,111.16 105.00,111.58 105.00,112.44 C105.00,114.20 104.40,114.46 103.54,113.07 ZM 93.50 153.00 C93.16,152.45 93.36,152.00 93.94,152.00 C94.52,152.00 95.00,152.45 95.00,153.00 C95.00,153.55 94.80,154.00 94.56,154.00 C94.32,154.00 93.84,153.55 93.50,153.00 ZM 242.16 150.00 C242.16,148.62 242.38,148.06 242.66,148.75 C242.94,149.44 242.94,150.56 242.66,151.25 C242.38,151.94 242.16,151.38 242.16,150.00 ZM 95.16 148.00 C95.16,146.62 95.38,146.06 95.66,146.75 C95.94,147.44 95.94,148.56 95.66,149.25 C95.38,149.94 95.16,149.38 95.16,148.00 ZM 73.08 235.42 C73.13,234.25 73.36,234.01 73.68,234.81 C73.97,235.53 73.94,236.40 73.60,236.73 C73.27,237.06 73.04,236.47 73.08,235.42 Z" fill="rgb(47,69,107)"/>
<path d="M 74.15 322.92 C63.04,319.92 51.24,313.42 41.92,305.18 C32.57,296.91 23.13,280.17 19.77,265.87 C18.79,261.74 18.50,239.02 18.50,167.50 C18.50,80.22 18.61,74.01 20.37,66.50 C27.01,38.04 50.42,14.84 80.00,7.39 C87.09,5.60 92.70,5.50 183.00,5.50 L 278.50 5.50 L 287.00 8.39 C297.56,11.98 301.68,13.99 310.31,19.76 C325.70,30.06 338.23,49.68 341.05,67.88 C341.71,72.16 341.97,108.97 341.79,172.00 L 341.50 269.50 L 338.94 276.06 C335.41,285.13 329.92,294.67 325.08,300.18 C317.28,309.04 303.93,317.61 290.69,322.27 C284.50,324.45 284.44,324.45 183.00,324.68 C84.49,324.90 81.28,324.84 74.15,322.92 ZM 284.31 306.61 C298.86,302.58 312.87,290.91 320.05,276.85 C326.18,264.82 326.09,266.70 325.78,163.97 L 325.50 70.50 L 323.11 63.59 C319.73,53.82 314.87,46.15 307.70,39.29 C298.55,30.54 290.52,26.24 278.02,23.40 L 267.50 21.02 L 183.00 21.01 C103.32,21.00 97.91,21.11 88.25,22.95 C73.40,25.78 62.91,31.14 53.03,40.94 C47.06,46.87 44.53,50.34 41.31,57.00 C34.24,71.63 34.50,67.40 34.50,168.50 C34.50,270.83 34.06,264.51 42.16,278.66 C50.65,293.51 68.21,306.10 83.50,308.29 C85.15,308.53 129.48,308.67 182.00,308.61 C272.30,308.51 277.87,308.40 284.31,306.61 Z" fill="rgb(91,142,222)"/>
</g>
</svg>